<mxfile host="app.diagrams.net" modified="2023-03-21T15:23:54.481Z" agent="5.0 (X11; Linux x86_64) AppleWebKit/537.36 (KHTML, like Gecko) Chrome/101.0.0.0 Safari/537.36" etag="ulJ8tC2vUOkxxP4pXbo1" version="21.0.8" type="github">
  <diagram name="App components" id="lCMRPWak-l99gqr__HIk">
    <mxGraphModel dx="813" dy="463" grid="1" gridSize="10" guides="1" tooltips="1" connect="1" arrows="1" fold="1" page="1" pageScale="1" pageWidth="1654" pageHeight="2336" math="0" shadow="0">
      <root>
        <mxCell id="0" />
        <mxCell id="1" parent="0" />
      </root>
    </mxGraphModel>
  </diagram>
</mxfile>
